<svg width="805" height="805" viewBox="0 0 805 805" fill="none" xmlns="http://www.w3.org/2000/svg" ml-update="aware">
<circle cx="402.5" cy="402.5" r="402.5" fill="#6DE19B"/>
<g clip-path="url(#clip0_502_2082)">
<path d="M805 0H0V805H805V0Z" fill="#005AEB"/>
<path d="M664.497 233.599L176.951 186.641L154.664 417.855L642.211 464.813L664.497 233.599Z" fill="white"/>
<path d="M577.513 357.629L171.062 446.701L218.766 664.274L625.217 575.203L577.513 357.629Z" fill="white"/>
<path d="M509.536 558.581L570.134 508.194L457.807 375.518L514.306 295.54L449.533 250.52L373.953 357.406L358.226 268.856L280.26 282.496L309.776 448.266L282.869 486.355L321.33 513.039L332.436 575.277L410.327 561.637L393.407 466.602L410.774 442.005L509.536 558.581Z" fill="#031037"/>
</g>
<defs>
<clipPath id="clip0_502_2082">
<rect width="805" height="805" rx="402.5" fill="white"/>
</clipPath>
</defs>
</svg>